<?xml version="1.0" encoding="utf-8"?>
<!-- Generator: Adobe Illustrator 28.0.0, SVG Export Plug-In . SVG Version: 6.00 Build 0)  -->
<svg version="1.1" id="Layer_1" xmlns="http://www.w3.org/2000/svg" xmlns:xlink="http://www.w3.org/1999/xlink" x="0px" y="0px"
	 viewBox="0 0 3600 3600" style="enable-background:new 0 0 3600 3600;" xml:space="preserve">
<style type="text/css">
	.st0{fill:#009999;}
	.st1{fill:#FA5C00;}
	.st2{fill:#53565A;}
	.st3{fill:#FFFFFF;}
</style>
<g>
	<path class="st0" d="M1499.54,850.18c-36.89-38.96-98.37-40.64-137.33-3.75c-38.96,36.89-40.64,98.38-3.76,137.34
		c36.89,38.96,98.38,40.63,137.34,3.75C1534.75,950.62,1536.43,889.14,1499.54,850.18z"/>
	<path class="st0" d="M2623.63,1504.51c62.83-36.28,84.35-116.61,48.08-179.42c-36.27-62.83-116.6-84.36-179.43-48.08
		c-62.82,36.28-84.35,116.61-48.08,179.43C2480.48,1519.24,2560.8,1540.77,2623.63,1504.51z"/>
	<path class="st1" d="M2358.95,752.36c-0.66-0.12-1.32-0.26-1.97-0.4c1.97,156.65-38.35,397.45-145.65,709.96
		c-158.47,461.58-537.81,1033.67-631.07,830.72c-6.78-14.77-12.56-30.25-17.38-46.51c14.96,77.95,44.77,129.37,89.76,144.63
		c146.62,49.73,472.61-439.2,637.2-924.52c94.78-279.45,139.81-541.81,132.96-723.59C2403.9,752.69,2381.6,756.63,2358.95,752.36z"
		/>
	<path class="st0" d="M2308.46,643.54c-7.14,37.87,17.77,74.35,55.64,81.49c37.86,7.14,74.35-17.77,81.49-55.63
		c7.14-37.87-17.77-74.35-55.63-81.49C2352.09,580.77,2315.6,605.68,2308.46,643.54z"/>
	<path class="st1" d="M2322.36,497.45c-146.62-49.73-398.91,303.39-563.51,788.71c-28.81,84.94-53.01,168.29-72.56,248.28
		c3.39,1.03,6.75,2.13,10.08,3.28c21.18-75.02,46.53-157.06,75.86-247.02c165.64-507.96,434.08-798.15,525.68-740.5
		c8.88,5.59,16.96,14.19,24.11,25.7c18.18-12.41,40.54-18.71,63.72-16.61C2369.74,527.61,2348.64,506.36,2322.36,497.45z"/>
	<g>
		<path class="st1" d="M1887.15,1789.97c0.31,5.36,0.47,10.77,0.48,16.21c13.4-5.98,26.83-12.08,40.29-18.29
			c181.15-83.6,343.42-176.72,475.04-269.07c-122.47,77.33-281.17,159.86-481.48,255.11
			C1909.98,1779.38,1898.54,1784.73,1887.15,1789.97z"/>
		<path class="st1" d="M2692.6,1256.44c52.21-71.12,71.53-133.69,49.86-180.66c-70.65-153.08-549.86-82.45-1070.37,157.77
			c-520.5,240.21-885.19,559.03-814.54,712.1c44.23,95.84,248.64,103.98,523.07,37.71c-4.46-5.61-8.71-11.38-12.75-17.32
			c-259.86,54.02-434.83,30.61-448.78-41.33c-20.73-106.98,234.71-363.71,809-626.2c496.5-226.94,1083.98-318.98,989.24-91.16
			C2710.44,1223.93,2702.2,1240.26,2692.6,1256.44z"/>
	</g>
	<g>
		<path class="st1" d="M1998.55,1362.59c-129.24-136.5-261.54-253.02-384.09-342.24c106.24,85.72,227.89,202.38,373.33,352.43
			c391.91,404.32,530.82,796.78,432.38,853.45c-71.68,41.26-278.5-42.54-562.56-292.47c-11.67,23.27-26.44,44.73-43.77,63.81
			c288.04,244.49,551.13,364.81,643.47,277.38C2575.28,2163.26,2369.89,1754.78,1998.55,1362.59z"/>
		<path class="st1" d="M1484.41,1548.09c-280.41-345.6-449.7-723.93-245.1-712.23c17.06,0.97,34.31,3.24,51.8,6.78
			c-79.89-24.54-142.32-22.2-178.52,12.07c-100.39,95.05,33.39,405.03,304.32,736.99
			C1437.11,1574.16,1459.82,1559.42,1484.41,1548.09z"/>
	</g>
	<path class="st0" d="M1707.52,1987.05c99.73-57.58,133.9-185.1,76.32-284.82c-57.58-99.73-185.09-133.9-284.82-76.33
		c-99.72,57.58-133.89,185.1-76.31,284.83C1480.29,2010.45,1607.78,2044.62,1707.52,1987.05z"/>
</g>
<g>
	<path class="st2" d="M196.97,3007.55v-436.24H371.1c33.23,0,62.26,5.82,87.07,17.45c24.81,11.63,43.98,28.61,57.51,50.92
		c13.53,22.32,20.3,49.03,20.3,80.12c0,31.1-6.77,57.81-20.3,80.12c-13.53,22.32-32.71,39.35-57.51,51.1
		c-24.81,11.75-53.83,17.63-87.07,17.63h-83.33v138.88H196.97z M357.22,2796.02c28.49,0,50.33-6.23,65.52-18.7
		c15.19-12.46,22.79-31.63,22.79-57.51c0-25.87-7.6-45.05-22.79-57.51c-15.2-12.46-37.04-18.7-65.52-18.7h-69.44v152.42H357.22z"/>
	<path class="st2" d="M601.86,3007.55v-467.57h87.6v191.23h1.42c9.97-19.7,23.62-34.84,40.95-45.4
		c17.33-10.56,39.65-15.85,66.95-15.85c24.22,0,45.28,4.87,63.21,14.6c17.92,9.74,31.63,23.74,41.13,42.02
		c9.49,18.28,14.24,39.88,14.24,64.81v216.16h-87.6v-190.88c0-50.8-19.47-76.21-58.4-76.21c-15.91,0-30.09,3.98-42.56,11.93
		c-12.46,7.96-22.14,19.17-29.02,33.65c-6.89,14.48-10.33,31.1-10.33,49.86v171.65H601.86z"/>
	<path class="st2" d="M967.23,3128.98l21.72-69.44c5.22,1.66,11.27,2.97,18.16,3.92c6.88,0.95,13.18,1.42,18.87,1.42
		c14.72,0,26.53-2.91,35.43-8.72c8.9-5.82,15.61-14.42,20.12-25.82l6.41-16.38l-136.39-336.53h94.73l84.04,246.07h3.21l86.18-246.07
		h90.1l-138.17,345.78c-11.64,29.2-24.52,52.11-38.64,68.73c-14.13,16.61-29.97,28.43-47.54,35.43c-17.57,7-38.23,10.51-61.96,10.51
		C1003.56,3137.89,984.8,3134.92,967.23,3128.98z"/>
	<path class="st2" d="M1391.01,3000.43c-25.64-8.78-47.49-21.48-65.52-38.1l40.95-59.83c15.9,14.24,33.3,25.17,52.17,32.76
		c18.87,7.6,36.26,11.4,52.17,11.4c15.19,0,26.83-2.73,34.9-8.19c8.07-5.46,12.11-12.46,12.11-21.01c0-7.36-3.03-13.59-9.08-18.7
		c-6.05-5.1-16.44-9.67-31.16-13.71l-56.62-15.67c-29.68-8.31-52.23-20.59-67.66-36.86c-15.44-16.26-23.15-37.69-23.15-64.28
		c0-18.28,5.04-34.9,15.13-49.86c10.09-14.96,24.81-26.89,44.16-35.79c19.35-8.9,42.2-13.35,68.55-13.35
		c52.47,0,97.34,16.98,134.61,50.92l-47.72,53.06c-12.35-10.92-25.94-19.41-40.77-25.46c-14.84-6.05-29.86-9.08-45.05-9.08
		c-15.67,0-27.42,3.03-35.25,9.08c-7.83,6.05-11.75,13.12-11.75,21.19c0,6.18,2.43,11.46,7.3,15.85c4.86,4.4,13.59,8.25,26.17,11.57
		l57.69,16.02c32.05,8.79,56.14,21.43,72.29,37.93c16.14,16.5,24.22,37.45,24.22,62.85c0,19.23-4.87,36.45-14.6,51.64
		c-9.74,15.2-24.16,27.13-43.27,35.79c-19.11,8.66-42.32,13-69.62,13C1443.71,3013.6,1416.65,3009.21,1391.01,3000.43z"/>
	<path class="st2" d="M1674.83,2613.34c-9.74-9.49-14.6-21.96-14.6-37.39c0-15.19,4.86-27.48,14.6-36.86
		c9.73-9.38,22.91-14.07,39.53-14.07c16.61,0,29.85,4.69,39.71,14.07c9.85,9.38,14.78,21.67,14.78,36.86
		c0,15.2-4.99,27.6-14.96,37.21c-9.97,9.61-23.15,14.42-39.53,14.42C1697.73,2627.58,1684.56,2622.83,1674.83,2613.34z
		 M1756.38,3007.55h-84.04v-330.12h84.04V3007.55z"/>
	<path class="st2" d="M1909.33,2992.06c-26.47-13.89-47.25-33.77-62.32-59.65c-15.08-25.87-22.61-56.03-22.61-90.45
		c0-33.47,7.24-63.21,21.72-89.21c14.48-26,34.66-46.29,60.54-60.9c25.87-14.6,55.2-21.9,87.96-21.9c37.04,0,67.6,7.48,91.7,22.44
		c24.09,14.96,43.98,36.45,59.65,64.46l-70.51,33.83c-8.31-16.38-19.29-28.9-32.94-37.57c-13.66-8.66-29.02-13-46.12-13
		c-25.41,0-45.46,8.79-60.18,26.35c-14.72,17.57-22.08,42.86-22.08,75.85c0,31.34,7.77,55.32,23.33,71.93
		c15.55,16.62,36.26,24.93,62.14,24.93c32.52,0,59.23-12.94,80.12-38.82l60.54,47.72c-18.04,22.08-38.1,38.4-60.18,48.97
		s-49.03,15.85-80.84,15.85C1965.77,3012.89,1935.8,3005.95,1909.33,2992.06z"/>
	<path class="st2" d="M2251.37,3000.43c-25.64-8.78-47.49-21.48-65.52-38.1l40.95-59.83c15.9,14.24,33.3,25.17,52.17,32.76
		c18.87,7.6,36.26,11.4,52.17,11.4c15.19,0,26.83-2.73,34.9-8.19c8.07-5.46,12.11-12.46,12.11-21.01c0-7.36-3.03-13.59-9.08-18.7
		c-6.05-5.1-16.44-9.67-31.16-13.71l-56.62-15.67c-29.68-8.31-52.23-20.59-67.66-36.86c-15.43-16.26-23.15-37.69-23.15-64.28
		c0-18.28,5.04-34.9,15.13-49.86c10.09-14.96,24.8-26.89,44.16-35.79c19.35-8.9,42.2-13.35,68.55-13.35
		c52.46,0,97.33,16.98,134.61,50.92l-47.72,53.06c-12.35-10.92-25.94-19.41-40.77-25.46c-14.84-6.05-29.86-9.08-45.05-9.08
		c-15.67,0-27.42,3.03-35.25,9.08c-7.83,6.05-11.75,13.12-11.75,21.19c0,6.18,2.43,11.46,7.3,15.85c4.86,4.4,13.59,8.25,26.17,11.57
		l57.69,16.02c32.05,8.79,56.14,21.43,72.29,37.93c16.14,16.5,24.22,37.45,24.22,62.85c0,19.23-4.87,36.45-14.6,51.64
		c-9.74,15.2-24.16,27.13-43.27,35.79c-19.11,8.66-42.32,13-69.62,13C2304.08,3013.6,2277.01,3009.21,2251.37,3000.43z"/>
	<path class="st2" d="M2620.66,3007.55h-84.04v-436.24h131.05l122.15,332.96h2.14l117.87-332.96h132.47v436.24h-84.04v-206.9
		l4.63-141.73h-2.14l-131.76,348.63h-78.34l-133.9-349.35h-2.14l6.05,142.44V3007.55z"/>
	<path class="st2" d="M3439.36,3007.55h-279.19v-436.24h90.81v362.17h188.38V3007.55z"/>
</g>
</svg>
