<?xml version="1.0" encoding="utf-8"?>
<!-- Generator: Adobe Illustrator 28.0.0, SVG Export Plug-In . SVG Version: 6.00 Build 0)  -->
<svg version="1.1" id="Layer_1" xmlns="http://www.w3.org/2000/svg" xmlns:xlink="http://www.w3.org/1999/xlink" x="0px" y="0px"
	 viewBox="0 0 3600 3600" style="enable-background:new 0 0 3600 3600;" xml:space="preserve">
<style type="text/css">
	.st0{fill:#009999;}
	.st1{fill:#FA5C00;}
	.st2{fill:#53565A;}
	.st3{fill:#FFFFFF;}
</style>
<g>
	<path class="st0" d="M1311.58,835.47c-59.96-63.33-159.91-66.06-223.24-6.1c-63.34,59.97-66.07,159.92-6.11,223.26
		c59.97,63.33,159.92,66.05,223.25,6.09C1368.81,998.76,1371.54,898.81,1311.58,835.47z"/>
	<path class="st0" d="M3138.88,1899.14c102.13-58.97,137.12-189.56,78.16-291.67c-58.96-102.13-189.54-137.13-291.67-78.16
		c-102.12,58.97-137.11,189.55-78.15,291.68C2906.18,1923.1,3036.75,1958.1,3138.88,1899.14z"/>
	<path class="st1" d="M2708.62,676.46c-1.08-0.2-2.14-0.42-3.21-0.65c3.2,254.64-62.35,646.09-236.76,1154.11
		c-257.61,750.33-874.25,1680.32-1025.87,1350.41c-11.03-24-20.42-49.18-28.26-75.61c24.32,126.72,72.77,210.31,145.9,235.11
		c238.35,80.83,768.26-713.96,1035.82-1502.89c154.07-454.28,227.27-880.75,216.14-1176.26
		C2781.69,677,2745.44,683.4,2708.62,676.46z"/>
	<path class="st0" d="M2626.55,499.57c-11.61,61.56,28.89,120.87,90.44,132.48c61.55,11.61,120.87-28.88,132.48-90.44
		c11.61-61.56-28.89-120.87-90.44-132.48C2697.47,397.52,2638.16,438.01,2626.55,499.57z"/>
	<path class="st1" d="M2649.15,262.08c-238.35-80.83-648.47,493.19-916.03,1282.12c-46.83,138.07-86.17,273.56-117.96,403.6
		c5.5,1.68,10.96,3.46,16.38,5.33c34.43-121.95,75.63-255.32,123.31-401.56c269.26-825.74,705.63-1297.47,854.53-1203.75
		c14.44,9.09,27.58,23.07,39.19,41.78c29.56-20.18,65.9-30.41,103.59-26.99C2726.17,311.12,2691.87,276.57,2649.15,262.08z"/>
	<g>
		<path class="st1" d="M1941.67,2363.19c0.5,8.72,0.76,17.5,0.77,26.34c21.78-9.73,43.61-19.64,65.49-29.73
			c294.48-135.9,558.26-287.28,772.23-437.4c-199.08,125.71-457.07,259.87-782.69,414.7
			C1978.79,2345.98,1960.19,2354.67,1941.67,2363.19z"/>
		<path class="st1" d="M3250.99,1495.88c84.88-115.61,116.28-217.33,81.05-293.67c-114.84-248.84-893.85-134.02-1739.97,256.46
			C745.94,1849.15,153.12,2367.42,267.96,2616.26c71.9,155.8,404.19,169.04,850.3,61.31c-7.25-9.11-14.16-18.5-20.72-28.16
			c-422.42,87.81-706.86,49.76-729.52-67.18c-33.7-173.9,381.54-591.25,1315.11-1017.94c807.1-368.91,1762.11-518.53,1608.09-148.18
			C3280.01,1443.04,3266.61,1469.59,3250.99,1495.88z"/>
	</g>
	<g>
		<path class="st1" d="M2122.77,1668.45c-210.08-221.89-425.15-411.31-624.38-556.34c172.7,139.35,370.45,328.98,606.88,572.9
			c637.08,657.26,862.9,1295.24,702.87,1387.36c-116.52,67.08-452.72-69.16-914.49-475.43c-18.97,37.83-42.98,72.71-71.15,103.73
			c468.23,397.44,895.91,593.04,1046.01,450.91C3060.28,2970.01,2726.4,2305.99,2122.77,1668.45z"/>
		<path class="st1" d="M1286.98,1969.99C831.16,1408.19,555.95,793.17,888.55,812.19c27.73,1.58,55.77,5.27,84.21,11.03
			c-129.86-39.89-231.36-36.08-290.2,19.62c-163.19,154.52,54.27,658.41,494.7,1198.04C1210.1,2012.37,1247,1988.41,1286.98,1969.99
			z"/>
	</g>
	<path class="st0" d="M1649.66,2683.56c162.12-93.61,217.66-300.9,124.07-462.99c-93.6-162.12-300.88-217.67-463-124.07
		c-162.11,93.61-217.65,300.89-124.06,463.01C1280.28,2721.59,1487.54,2777.14,1649.66,2683.56z"/>
</g>
</svg>
