<svg xmlns="http://www.w3.org/2000/svg" xmlns:xlink="http://www.w3.org/1999/xlink" version="1.1" id="Layer_1" x="0px" y="0px" style="enable-background:new 0 0 3600 3600;" xml:space="preserve" viewBox="127.36 1264.15 3330.97 1117.71">
<style type="text/css">
	.st0{fill:#009999;}
	.st1{fill:#FA5C00;}
	.st2{fill:#53565A;}
	.st3{fill:#FFFFFF;}
</style>
<g>
	<path class="st3" d="M1075.86,2070.27v-320.54h127.96c24.42,0,45.75,4.28,63.98,12.82c18.23,8.55,32.32,21.02,42.26,37.42   c9.94,16.4,14.92,36.02,14.92,58.88c0,22.86-4.97,42.48-14.92,58.88c-9.94,16.4-24.03,28.91-42.26,37.55   c-18.23,8.63-39.56,12.95-63.98,12.95h-61.23v102.05H1075.86z M1193.61,1914.84c20.93,0,36.98-4.58,48.15-13.74   c11.16-9.16,16.75-23.24,16.75-42.26c0-19.01-5.58-33.1-16.75-42.26c-11.17-9.16-27.21-13.74-48.15-13.74h-51.03v111.99H1193.61z"/>
	<path class="st3" d="M1373.37,2070.27v-343.57h64.37v140.51h1.05c7.33-14.48,17.36-25.6,30.09-33.36   c12.73-7.76,29.13-11.64,49.19-11.64c17.79,0,33.27,3.58,46.45,10.73c13.17,7.16,23.24,17.45,30.22,30.88   c6.97,13.43,10.47,29.31,10.47,47.62v158.83h-64.37v-140.25c0-37.33-14.31-56-42.91-56c-11.69,0-22.11,2.92-31.27,8.77   c-9.16,5.85-16.27,14.09-21.33,24.73c-5.06,10.64-7.59,22.86-7.59,36.63v126.12H1373.37z"/>
	<path class="st3" d="M1641.84,2159.5l15.96-51.02c3.83,1.22,8.28,2.18,13.34,2.88c5.06,0.7,9.68,1.05,13.87,1.05   c10.81,0,19.49-2.14,26.04-6.41c6.54-4.28,11.47-10.6,14.78-18.97l4.71-12.04l-100.22-247.28h69.6l61.75,180.81h2.35l63.32-180.81   h66.2l-101.53,254.08c-8.55,21.46-18.01,38.29-28.39,50.5c-10.38,12.21-22.02,20.89-34.93,26.04c-12.91,5.14-28.09,7.72-45.53,7.72   C1668.53,2166.04,1654.75,2163.86,1641.84,2159.5z"/>
	<path class="st3" d="M1953.22,2065.04c-18.84-6.45-34.89-15.79-48.15-28l30.09-43.96c11.68,10.47,24.46,18.49,38.33,24.07   c13.87,5.58,26.64,8.37,38.33,8.37c11.16,0,19.71-2,25.64-6.02c5.93-4.01,8.9-9.16,8.9-15.44c0-5.41-2.22-9.98-6.67-13.74   c-4.45-3.75-12.08-7.11-22.9-10.07l-41.6-11.51c-21.81-6.1-38.38-15.13-49.72-27.08c-11.34-11.95-17.01-27.69-17.01-47.23   c0-13.43,3.7-25.64,11.12-36.63c7.41-10.99,18.23-19.76,32.45-26.3c14.22-6.54,31.01-9.81,50.37-9.81   c38.55,0,71.52,12.47,98.91,37.42l-35.06,38.99c-9.07-8.02-19.06-14.26-29.96-18.71c-10.9-4.45-21.94-6.67-33.1-6.67   c-11.51,0-20.15,2.22-25.91,6.67s-8.63,9.64-8.63,15.57c0,4.54,1.79,8.42,5.36,11.64c3.57,3.23,9.98,6.06,19.23,8.5l42.39,11.77   c23.55,6.46,41.25,15.75,53.12,27.87c11.86,12.13,17.79,27.52,17.79,46.18c0,14.13-3.58,26.78-10.73,37.94   c-7.16,11.17-17.75,19.93-31.79,26.3c-14.04,6.37-31.1,9.55-51.16,9.55C1991.95,2074.72,1972.06,2071.49,1953.22,2065.04z"/>
	<path class="st3" d="M2161.77,1780.61c-7.16-6.98-10.73-16.13-10.73-27.47c0-11.16,3.57-20.19,10.73-27.08   c7.15-6.89,16.83-10.34,29.04-10.34c12.21,0,21.94,3.45,29.18,10.34c7.24,6.89,10.86,15.92,10.86,27.08   c0,11.17-3.66,20.28-10.99,27.34s-17.01,10.6-29.04,10.6C2178.61,1791.08,2168.92,1787.59,2161.77,1780.61z M2221.7,2070.27h-61.75   v-242.57h61.75V2070.27z"/>
	<path class="st3" d="M2334.08,2058.89c-19.45-10.21-34.71-24.81-45.79-43.83c-11.08-19.01-16.62-41.17-16.62-66.46   c0-24.6,5.32-46.45,15.96-65.55c10.64-19.1,25.47-34.02,44.48-44.75c19.01-10.73,40.56-16.09,64.63-16.09   c27.21,0,49.67,5.49,67.38,16.48c17.7,10.99,32.32,26.78,43.83,47.36l-51.81,24.86c-6.11-12.04-14.17-21.24-24.2-27.61   c-10.03-6.37-21.33-9.55-33.89-9.55c-18.67,0-33.41,6.46-44.22,19.36c-10.82,12.91-16.22,31.49-16.22,55.74   c0,23.03,5.71,40.65,17.14,52.86c11.42,12.21,26.65,18.32,45.66,18.32c23.9,0,43.52-9.51,58.88-28.52l44.48,35.06   c-13.26,16.22-28,28.22-44.22,35.98c-16.22,7.76-36.03,11.64-59.4,11.64C2375.55,2074.2,2353.53,2069.1,2334.08,2058.89z"/>
	<path class="st3" d="M2585.41,2065.04c-18.84-6.45-34.89-15.79-48.15-28l30.09-43.96c11.68,10.47,24.46,18.49,38.33,24.07   c13.87,5.58,26.64,8.37,38.33,8.37c11.16,0,19.71-2,25.64-6.02c5.93-4.01,8.9-9.16,8.9-15.44c0-5.41-2.22-9.98-6.67-13.74   c-4.45-3.75-12.08-7.11-22.9-10.07l-41.6-11.51c-21.81-6.1-38.38-15.13-49.72-27.08c-11.34-11.95-17.01-27.69-17.01-47.23   c0-13.43,3.7-25.64,11.12-36.63c7.41-10.99,18.23-19.76,32.45-26.3c14.22-6.54,31.01-9.81,50.37-9.81   c38.55,0,71.52,12.47,98.91,37.42l-35.06,38.99c-9.07-8.02-19.06-14.26-29.96-18.71c-10.9-4.45-21.94-6.67-33.1-6.67   c-11.51,0-20.15,2.22-25.91,6.67s-8.63,9.64-8.63,15.57c0,4.54,1.79,8.42,5.36,11.64c3.57,3.23,9.98,6.06,19.23,8.5l42.39,11.77   c23.55,6.46,41.25,15.75,53.12,27.87c11.86,12.13,17.79,27.52,17.79,46.18c0,14.13-3.58,26.78-10.73,37.94   c-7.16,11.17-17.75,19.93-31.79,26.3c-14.04,6.37-31.1,9.55-51.16,9.55C2624.14,2074.72,2604.25,2071.49,2585.41,2065.04z"/>
	<path class="st3" d="M2856.76,2070.27h-61.75v-320.54h96.29l89.75,244.66h1.57l86.61-244.66h97.34v320.54h-61.75v-152.03   l3.4-104.14h-1.57l-96.82,256.17h-57.57l-98.39-256.7h-1.57l4.45,104.67V2070.27z"/>
	<path class="st3" d="M3458.33,2070.27h-205.15v-320.54h66.72v266.12h138.42V2070.27z"/>
</g>
<g>
	<path class="st0" d="M509.87,1474.23c-21.68-22.9-57.82-23.89-80.72-2.21c-22.9,21.68-23.89,57.83-2.21,80.73   c21.68,22.9,57.83,23.89,80.73,2.2C530.57,1533.27,531.56,1497.13,509.87,1474.23z"/>
	<path class="st1" d="M1015.04,1416.73c-0.39-0.07-0.77-0.15-1.16-0.23c1.16,92.08-22.54,233.63-85.61,417.32   c-93.15,271.32-316.13,607.6-370.95,488.3c-3.99-8.68-7.39-17.78-10.22-27.34c8.79,45.82,26.31,76.05,52.76,85.02   c86.19,29.23,277.8-258.17,374.55-543.44c55.71-164.27,82.18-318.48,78.16-425.33C1041.46,1416.93,1028.36,1419.24,1015.04,1416.73   z"/>
	<path class="st0" d="M985.36,1352.77c-4.2,22.26,10.45,43.71,32.7,47.9c22.26,4.2,43.71-10.44,47.9-32.7   c4.2-22.26-10.45-43.71-32.7-47.9C1011.01,1315.87,989.56,1330.51,985.36,1352.77z"/>
	<path class="st1" d="M993.53,1266.89c-86.19-29.23-234.49,178.34-331.24,463.61c-16.93,49.93-31.16,98.92-42.65,145.94   c1.99,0.61,3.96,1.25,5.92,1.93c12.45-44.1,27.35-92.32,44.59-145.2c97.36-298.59,255.16-469.16,309-435.28   c5.22,3.29,9.97,8.34,14.17,15.11c10.69-7.3,23.83-11,37.46-9.76C1021.39,1284.62,1008.98,1272.13,993.53,1266.89z"/>
	<g>
		<path class="st1" d="M737.71,2026.65c0.18,3.15,0.28,6.33,0.28,9.53c7.88-3.52,15.77-7.1,23.68-10.75    c106.48-49.14,201.87-103.88,279.24-158.16c-71.99,45.46-165.28,93.97-283.02,149.95    C751.13,2020.42,744.41,2023.57,737.71,2026.65z"/>
		<path class="st1" d="M1211.16,1713.03c30.69-41.8,42.05-78.58,29.31-106.19c-41.53-89.98-323.22-48.46-629.17,92.74    c-305.96,141.2-520.32,328.6-478.8,418.58c26,56.34,146.15,61.12,307.47,22.17c-2.62-3.29-5.12-6.69-7.49-10.18    c-152.75,31.75-255.6,17.99-263.79-24.29c-12.19-62.88,137.97-213.79,475.54-368.09c291.85-133.4,637.18-187.5,581.48-53.58    C1221.65,1693.92,1216.81,1703.53,1211.16,1713.03z"/>
	</g>
	<g>
		<path class="st1" d="M803.2,1775.43c-75.97-80.23-153.73-148.73-225.77-201.17c62.45,50.39,133.95,118.96,219.45,207.16    c230.37,237.67,312.02,468.36,254.15,501.67c-42.14,24.25-163.7-25.01-330.68-171.92c-6.86,13.68-15.54,26.29-25.73,37.51    c169.31,143.71,323.96,214.44,378.24,163.05C1142.2,2246.07,1021.47,2005.97,803.2,1775.43z"/>
		<path class="st1" d="M500.98,1884.47c-164.83-203.15-264.34-425.54-144.07-418.66c10.03,0.57,20.17,1.91,30.45,3.99    c-46.96-14.42-83.66-13.05-104.94,7.1c-59.01,55.87,19.62,238.08,178.88,433.21C473.18,1899.79,486.52,1891.13,500.98,1884.47z"/>
	</g>
	<path class="st0" d="M632.12,2142.49c58.62-33.85,78.71-108.8,44.86-167.42c-33.84-58.62-108.8-78.71-167.42-44.86   c-58.62,33.85-78.7,108.8-44.86,167.42C498.55,2156.25,573.5,2176.33,632.12,2142.49z"/>
</g>
</svg>
